<?xml version="1.0" encoding="UTF-8"?>
<svg id="Layer_2" data-name="Layer 2" xmlns="http://www.w3.org/2000/svg" viewBox="0 0 1703 1000.88">
  <defs>
    <style>
      .cls-1 {
        fill: #0047e9;
        stroke-width: 0px;
      }
    </style>
  </defs>
  <g id="Layer_1-2" data-name="Layer 1">
    <path class="cls-1" d="M530.68,846.55H0v104.14h637.14v-191.97h-106.46v87.83ZM106.46,104.14h530.68V0H0v191.99h106.46v-87.86ZM1425.16,680.22c44.34,20.1,94.5,30.16,150.47,30.16,32.29,0,61.03-2.97,86.21-8.9,6.91-1.63,13.41-3.33,19.65-5.09v-133.61c-5.61,4.22-17.22,10.53-34.83,18.92-17.66,8.43-40.47,12.64-68.45,12.64-23.68,0-46.17-5.55-67.48-16.66-21.31-11.1-38.65-26.71-51.99-46.82-13.35-20.1-20.02-43.56-20.02-70.37s6.67-50.16,20.02-70.08c13.34-19.91,30.68-35.42,51.99-46.53,21.31-11.1,43.8-16.66,67.48-16.66,19.37,0,36.05,2.3,50.05,6.89,13.98,4.6,25.29,9.58,33.9,14.93,8.61,5.37,14.42,9.58,17.43,12.64l1.89-2.45v-133.13c-6.67-1.98-13.57-3.91-20.94-5.73-24.76-6.12-53.07-9.19-84.92-9.19-55.97,0-106.13,9.96-150.47,29.87-44.35,19.92-79.33,48.45-104.94,85.59-25.62,37.15-38.42,81.77-38.42,133.84s12.8,96.22,38.42,133.56c25.61,37.34,60.59,66.06,104.94,86.17ZM1203.75,224.98h-145.33v471.62h145.33V224.98ZM983.53,476.29c-15.32-18.96-34.67-33.51-58.02-43.66-23.36-10.14-47.11-17.71-71.23-22.69-28.72-6.51-51.12-14.16-67.21-22.98-16.08-8.81-24.13-20.68-24.13-35.62s7.47-26.13,22.4-33.6c14.94-7.47,44.95-11.2,66.78-11.2,24.13,0,46.04,4.22,65.77,12.64,19.72,8.43,33.41,15.71,41.07,21.83l1.27-2.23v-107.83c-13.33-4.33-28.43-8.34-45.5-12-24.13-5.17-50.36-7.75-78.7-7.75-34.85,0-79.23,5.27-109.86,15.8-30.64,10.54-55.53,25.85-74.68,45.96-19.15,20.1-28.72,45.09-28.72,74.96,0,23.36,4.6,43.37,13.79,60.03,9.19,16.66,21.25,30.54,36.19,41.65,14.94,11.11,31.02,20.02,48.25,26.71,17.23,6.7,34.08,11.78,50.55,15.22,18,3.83,33.69,8.24,47.11,13.21,13.4,4.98,23.93,11.2,31.59,18.67,7.66,7.47,11.49,17.14,11.49,29.01,0,16.09-7.95,28.92-23.84,38.49-15.9,9.58-37.63,14.36-65.2,14.36s-51.03-5.26-73.82-15.8c-22.79-10.53-44.98-20.19-54.93-29.01l-1.17,2.3v122.71c13.69,5.66,35.57,10.81,54.1,15.45,25.28,6.32,54.57,9.48,87.89,9.48,25.65,0,51.5-2.49,77.55-7.47,26.04-4.98,49.98-13.4,71.81-25.28,21.83-11.86,39.35-28.05,52.56-48.54,13.21-20.48,19.82-46.24,19.82-77.26s-7.66-56.58-22.98-75.54ZM811.98,893.07c0,7.69-1.31,14.24-3.92,19.66-2.61,5.42-6.27,9.53-10.95,12.34-4.69,2.81-10.11,4.21-16.26,4.21s-11.72-1.4-16.49-4.21c-4.77-2.81-8.47-6.92-11.13-12.34-2.65-5.42-3.98-11.97-3.98-19.66v-92.35h-28.71v93.85c0,12.53,2.48,23.37,7.44,32.51,4.96,9.15,11.95,16.2,20.98,21.16,9.03,4.96,19.66,7.44,31.88,7.44s22.69-2.48,31.65-7.44c8.95-4.96,15.91-12.01,20.87-21.16,4.96-9.15,7.44-19.99,7.44-32.51v-93.85h-28.83v92.35ZM949.42,859.46c-6.15-2.65-12.45-3.98-18.91-3.98-5.3,0-10.26.94-14.87,2.82-4.61,1.89-8.42,4.21-11.41,6.98-3,2.77-4.92,5.46-5.76,8.07v-15.1h-29.29v94.66h29.29v-51.42c0-4.77,1.09-9.01,3.29-12.74,2.19-3.73,5.03-6.65,8.53-8.76,3.5-2.11,7.17-3.17,11.01-3.17,5.92,0,10.7,1.89,14.35,5.65,3.65,3.77,5.48,9.53,5.48,17.3v53.15h29.4v-58.23c0-9.3-1.98-16.83-5.94-22.6-3.96-5.77-9.01-9.97-15.16-12.63ZM568.09,474.57c.19-9.38.29-15.6.29-18.67,0-52.46-9.96-96.88-29.87-133.27-19.92-36.38-47.96-64.05-84.16-83.01-36.19-18.96-78.98-28.44-128.39-28.44-52.47,0-97.37,10.73-134.71,32.17-37.34,21.45-65.77,50.65-85.3,87.6-19.53,36.96-29.3,78.41-29.3,124.37,0,52.85,10.91,98.43,32.74,136.72,21.83,38.3,52.27,67.6,91.33,87.89,39.06,20.29,84.44,30.45,136.14,30.45,40.98,0,86.79-3.36,114.17-10.05,18.43-4.51,34.5-10.15,48.59-16.74v-134.99c-49.6,54.8-147.96,56.06-153.33,56.08-.08,0-.16,0-.24,0-1.92,0-3.8-.03-5.66-.07-.72-.02-1.42-.05-2.13-.07-1.1-.04-2.19-.08-3.27-.13-.93-.05-1.86-.1-2.79-.16-.76-.05-1.51-.1-2.26-.15-1.15-.08-2.3-.17-3.43-.28-.34-.03-.68-.07-1.02-.1-18.95-1.83-35.75-6.29-50.37-13.4-9.69-4.7-18.23-10.28-25.65-16.74-.47-.42-.93-.83-1.38-1.25-.47-.42-.91-.86-1.37-1.29-17.35-16.66-25.84-36.46-29.98-51.92,0-.02-.01-.04-.02-.06-.32-1.18-.6-2.33-.87-3.46-1.62-7.15-2.65-14.6-3.07-22.35h353.85c.76-3.06,1.24-9.28,1.44-18.67ZM216.82,403.05c1.15-13.4,5.74-27.09,13.79-41.07,8.04-13.97,20.01-25.75,35.9-35.33,15.89-9.57,36.28-14.36,61.18-14.36s44.8,4.98,59.74,14.94c14.94,9.96,25.94,22.03,33.03,36.19,7.08,14.17,10.82,27.39,11.2,39.64h-214.84ZM1002.92,952.91h29.17v-94.66h-29.17v94.66ZM1466.98,952.91h29.17v-94.66h-29.17v94.66ZM1574.79,929.68c-1.54.96-3.5,1.44-5.88,1.44-3.15,0-5.46-1.25-6.92-3.75-1.46-2.5-2.19-6.01-2.19-10.55v-34.24h22.37v-24.33h-22.37v-38.85h-29.05v38.85h-17.06v24.33h17.06v42.08c0,10.61,2.84,18.43,8.53,23.46,5.69,5.03,12.87,7.55,21.56,7.55,4.84,0,9.2-.48,13.09-1.44,3.88-.96,7.07-2.02,9.57-3.17s3.98-1.96,4.44-2.42l-10.38-20.98c-.31.39-1.23,1.06-2.77,2.02ZM1490.62,801.59c-2.61-1.57-5.5-2.36-8.65-2.36-4.77,0-8.84,1.73-12.22,5.19-3.38,3.46-5.07,7.53-5.07,12.22s1.67,8.73,5.02,12.11c3.34,3.38,7.44,5.07,12.28,5.07s8.86-1.69,12.28-5.07c3.42-3.38,5.13-7.42,5.13-12.11,0-3.23-.81-6.15-2.42-8.76-1.61-2.61-3.73-4.71-6.34-6.28ZM1674.06,858.25l-28.02,68.95-25.37-68.95h-29.29l39.32,94.66-21.79,47.96h29.4l64.68-142.62h-28.94ZM1026.55,801.59c-2.61-1.57-5.5-2.36-8.65-2.36-4.77,0-8.84,1.73-12.22,5.19-3.39,3.46-5.07,7.53-5.07,12.22s1.67,8.73,5.02,12.11c3.34,3.38,7.44,5.07,12.28,5.07s8.86-1.69,12.28-5.07c3.42-3.38,5.13-7.42,5.13-12.11,0-3.23-.81-6.15-2.42-8.76-1.62-2.61-3.73-4.71-6.34-6.28ZM1101.49,926.17l-25.94-67.91h-31.36l40.12,94.66h34.36l40.01-94.66h-31.24l-25.94,67.91ZM1243.71,861.2c-7.26-3.81-15.85-5.71-25.77-5.71-10.53,0-19.54,2.15-27.04,6.46-7.49,4.31-13.2,10.17-17.12,17.58-3.92,7.42-5.88,15.74-5.88,24.96,0,10.61,2.19,19.76,6.57,27.44,4.38,7.69,10.49,13.57,18.33,17.64,7.84,4.07,16.95,6.11,27.33,6.11,8.22,0,15.08-.68,20.58-2.02,5.49-1.34,10.03-3.15,13.6-5.42,3.58-2.27,6.44-4.75,8.59-7.44l-12.1-17.99c-1.31,1.69-3.29,3.44-5.94,5.25-2.65,1.81-5.88,3.33-9.69,4.56-3.8,1.23-8.21,1.84-13.2,1.84-5.53,0-10.28-.96-14.24-2.88-3.96-1.92-6.98-4.57-9.05-7.95-2.08-3.38-3.23-7.22-3.46-11.53h71.02c.15-.61.25-1.86.29-3.75.04-1.88.06-3.13.06-3.75,0-10.53-2-19.45-5.99-26.75-4-7.3-9.63-12.86-16.89-16.66ZM1196.04,894c.23-2.69,1.15-5.44,2.77-8.24,1.62-2.8,4.02-5.17,7.21-7.09,3.19-1.92,7.28-2.88,12.28-2.88s8.99,1,11.99,3c3,2,5.21,4.42,6.63,7.26,1.42,2.84,2.17,5.5,2.25,7.95h-43.12ZM1342,855.49c-6.07,0-11.26,1.13-15.56,3.4-4.31,2.27-7.67,4.82-10.09,7.67-1.82,2.14-3.11,3.99-3.86,5.56v-13.86h-29.29v94.66h29.29v-49.23c0-3.3.81-6.86,2.42-10.66,1.62-3.81,4.04-7.03,7.27-9.69,3.23-2.65,7.26-3.98,12.11-3.98,4.07,0,7.47.65,10.2,1.96,2.73,1.31,4.59,2.58,5.59,3.81l11.53-23.98c-1.54-1.23-4.09-2.48-7.67-3.75-3.58-1.27-7.55-1.9-11.93-1.9ZM1429.86,899.93c-4.69-2.04-9.45-3.55-14.3-4.55-5.76-1.31-10.26-2.84-13.49-4.61-3.23-1.77-4.84-4.15-4.84-7.15s1.5-5.25,4.5-6.74c3-1.5,6.69-2.25,11.07-2.25,4.84,0,9.24.85,13.2,2.54,3.96,1.69,6.71,3.15,8.24,4.38l10.03-17.64c-1.08-.92-3.29-2.04-6.63-3.34-3.34-1.31-7.44-2.48-12.28-3.52-4.84-1.04-10.11-1.56-15.8-1.56-7,0-13.57,1.06-19.72,3.17-6.15,2.11-11.15,5.19-14.99,9.22-3.85,4.04-5.77,9.05-5.77,15.05,0,4.69.92,8.7,2.77,12.05,1.85,3.34,4.27,6.13,7.27,8.36,3,2.23,6.23,4.02,9.68,5.36,3.46,1.35,6.84,2.36,10.15,3.05,3.61.77,6.76,1.65,9.45,2.65,2.69,1,4.8,2.25,6.34,3.75,1.54,1.5,2.31,3.44,2.31,5.82,0,3.23-1.6,5.8-4.78,7.72-3.19,1.92-7.55,2.88-13.09,2.88s-10.24-1.06-14.82-3.17c-4.57-2.11-7.86-4.05-9.86-5.82l-10.03,19.6c1.38,1.15,3.71,2.55,6.97,4.21,3.27,1.65,7.44,3.11,12.51,4.38,5.07,1.27,10.95,1.9,17.64,1.9,5.15,0,10.34-.5,15.57-1.5,5.23-1,10.03-2.69,14.41-5.07,4.38-2.38,7.9-5.63,10.55-9.74,2.65-4.11,3.98-9.28,3.98-15.51s-1.54-11.36-4.61-15.16c-3.07-3.81-6.96-6.73-11.65-8.76Z"/>
  </g>
</svg>